<svg version="1" xmlns="http://www.w3.org/2000/svg" width="333.333" height="333.333" viewBox="0 0 250.000000 250.000000"><path d="M0 125v125h250V0H0v125zm88-51c0 2.7-.3 3-3.2 3-4.8 0-11.1 1.9-12.5 3.8-.7.9-1.3 3.2-1.3 5.1 0 3.3 25.4 87.7 26.9 89.3.4.4 6.8-15.4 14.3-35.2l13.6-36-2.4-7.8c-4-13.2-8.2-17.5-18.5-18.9-4.9-.7-5.4-1.1-5.7-3.6l-.3-2.7H185v3c0 2.7-.3 3-3.2 3-9.2 0-14.6 4.1-13.4 10.3 1.2 6.7 24.1 80.6 24.7 79.9 1.2-1.2 22.9-78.6 22.9-81.4 0-4.7-3-7-10.6-8.3-6.4-1-6.9-1.3-7.2-3.8l-.3-2.7H248v3c0 2.7-.3 3-3.2 3-4.1.1-10.3 2.3-12.8 4.5-1 .9-2.7 3.3-3.6 5.3-1 2.1-11.1 36.3-22.5 76.2l-20.6 72.5h-18.5l-17.7-56.8c-9.6-31.2-17.8-56.7-18.1-56.7-.4 0-10.3 25.6-22.1 57l-21.4 57H69.3l-22.2-71.7C34.8 124.8 24 90.7 23 88.5 19.9 81.3 13 77 4.8 77 2.4 77 2 76.6 2 74v-3h86v3z"/></svg>